# xmcd
#
# Track frame offsets:
#	150
#	15283
#	25952
#	37767
#	51830
#	73331
#	84914
#	96265
#	109724
#	122256
#	135918
#	154123
#	165922
#	188496
#	203357
#	216614
#	233830
#	250479
#	263085
#	280349
#
# Disc length: 3965 seconds
#
# Revision: 0
# Processed by: cddbd v1.5.2PL0 Copyright (c) Steve Scherf et al.
# Submitted via: EasyCDDAExtractor 9.1.3.1
#
DISCID=fe0f7b14
DTITLE=Ray Price - The Essential Ray Price [CD2]
DYEAR=2007
DGENRE=Country
TTITLE0=San Antonio Rose
TTITLE1=I've Just Destroyed The World (I'm Living In)
TTITLE2=Pride
TTITLE3=Walk Me To The Door
TTITLE4=Night Life
TTITLE5=Make The World Go Away
TTITLE6=Burning Memories
TTITLE7=The Other Woman
TTITLE8=Don't You Ever Get Tired Of Hurting Me
TTITLE9=A Way To Survive
TTITLE10=I'm Still Not Over You
TTITLE11=I Let My Mind Wander
TTITLE12=Danny Boy
TTITLE13=She Wears My Ring
TTITLE14=You Wouldn't Know Love
TTITLE15=For The Good Times
TTITLE16=I Won't Mention It Again
TTITLE17=I'd Rather Be Sorry
TTITLE18=You're The Best Thing That Ever Happened To Me
TTITLE19=Faded Love - Duet with Willie Nelson
EXTD=
EXTT0=
EXTT1=
EXTT2=
EXTT3=
EXTT4=
EXTT5=
EXTT6=
EXTT7=
EXTT8=
EXTT9=
EXTT10=
EXTT11=
EXTT12=
EXTT13=
EXTT14=
EXTT15=
EXTT16=
EXTT17=
EXTT18=
EXTT19=
PLAYORDER=
